<svg xmlns="http://www.w3.org/2000/svg" xmlns:xlink="http://www.w3.org/1999/xlink" viewBox="-362.927 346.656 35.853 30.355">
  <defs>
    <style>
      .cls-1 {
        fill: #fff;
      }

      .cls-2 {
        filter: url(#Path_12);
      }

      .cls-3 {
        filter: url(#Path_11);
      }

      .cls-4 {
        filter: url(#Path_10);
      }

      .cls-5 {
        filter: url(#Path_9);
      }

      .cls-6 {
        filter: url(#Path_8);
      }
    </style>
    <filter id="Path_8" x="-362.927" y="346.656" width="10.212" height="8.409" filterUnits="userSpaceOnUse">
      <feOffset dx="1" dy="1" input="SourceAlpha"/>
      <feGaussianBlur stdDeviation="0.5" result="blur"/>
      <feFlood flood-opacity="0.161"/>
      <feComposite operator="in" in2="blur"/>
      <feComposite in="SourceGraphic"/>
    </filter>
    <filter id="Path_9" x="-340.156" y="357.941" width="6.138" height="6.94" filterUnits="userSpaceOnUse">
      <feOffset dx="1" dy="1" input="SourceAlpha"/>
      <feGaussianBlur stdDeviation="0.5" result="blur-2"/>
      <feFlood flood-opacity="0.161"/>
      <feComposite operator="in" in2="blur-2"/>
      <feComposite in="SourceGraphic"/>
    </filter>
    <filter id="Path_10" x="-347.815" y="355.894" width="10.792" height="8.452" filterUnits="userSpaceOnUse">
      <feOffset dx="1" dy="1" input="SourceAlpha"/>
      <feGaussianBlur stdDeviation="0.5" result="blur-3"/>
      <feFlood flood-opacity="0.161"/>
      <feComposite operator="in" in2="blur-3"/>
      <feComposite in="SourceGraphic"/>
    </filter>
    <filter id="Path_11" x="-356.591" y="351.196" width="28.566" height="25.815" filterUnits="userSpaceOnUse">
      <feOffset dx="1" dy="1" input="SourceAlpha"/>
      <feGaussianBlur stdDeviation="0.5" result="blur-4"/>
      <feFlood flood-opacity="0.161"/>
      <feComposite operator="in" in2="blur-4"/>
      <feComposite in="SourceGraphic"/>
    </filter>
    <filter id="Path_12" x="-337.36" y="360.593" width="10.286" height="9.629" filterUnits="userSpaceOnUse">
      <feOffset dx="1" dy="1" input="SourceAlpha"/>
      <feGaussianBlur stdDeviation="0.5" result="blur-5"/>
      <feFlood flood-opacity="0.161"/>
      <feComposite operator="in" in2="blur-5"/>
      <feComposite in="SourceGraphic"/>
    </filter>
  </defs>
  <g id="diving-silhouette" transform="translate(-362.427 305.989)">
    <g id="Group_4" data-name="Group 4" transform="translate(0 41.167)">
      <g class="cls-6" transform="matrix(1, 0, 0, 1, 362.43, -347.16)">
        <path id="Path_8-2" data-name="Path 8" class="cls-1" d="M0,41.167l5.208,5.409,2-1.8-1.8-3.606Z" transform="translate(-362.43 305.99)"/>
      </g>
      <g class="cls-5" transform="matrix(1, 0, 0, 1, 362.43, -347.16)">
        <path id="Path_9-2" data-name="Path 9" class="cls-1" d="M341.735,214.04a1.9,1.9,0,0,0,1-3.673l-.734-.2-1,3.606Z" transform="translate(-680.66 148.27)"/>
      </g>
      <g class="cls-4" transform="matrix(1, 0, 0, 1, 362.43, -347.16)">
        <path id="Path_10-2" data-name="Path 10" class="cls-1" d="M234.1,181.3l-6.277-1.736a.673.673,0,0,0-.935.534l-.534,2.137a.664.664,0,0,0,.467.935l6.277,1.8Z" transform="translate(-573.62 176.87)"/>
      </g>
      <g class="cls-3" transform="matrix(1, 0, 0, 1, 362.43, -347.16)">
        <path id="Path_11-2" data-name="Path 11" class="cls-1" d="M112.378,121.654a3.8,3.8,0,0,0-1.736-1l-7.546-2.137-4.607-8.347a2.05,2.05,0,0,0-1.2-.935,1.952,1.952,0,0,0-2.337,1.335,2.111,2.111,0,0,0,.134,1.469l5.809,10.283a2.879,2.879,0,0,0,1.669,1.2l10.55,3,4.941,5.008a1.781,1.781,0,0,0,.6.4,1.507,1.507,0,0,0,1.068-.134,1.215,1.215,0,0,0,.668-.868,1.391,1.391,0,0,0-.4-1.4Z" transform="translate(-450.97 242.53)"/>
      </g>
      <g class="cls-2" transform="matrix(1, 0, 0, 1, 362.43, -347.16)">
        <path id="Path_12-2" data-name="Path 12" class="cls-1" d="M386.828,255.115l1.068,1.4,2.27-2.471-1.87-1.068a2.565,2.565,0,0,0-.434-1.836,2.979,2.979,0,0,0-1.569-1.169,2.627,2.627,0,0,0-2.037.3,2.781,2.781,0,0,0,.568,5.041A2.863,2.863,0,0,0,386.828,255.115Z" transform="translate(-719.74 111.21)"/>
      </g>
    </g>
  </g>
</svg>
