<svg xmlns="http://www.w3.org/2000/svg" viewBox="0 0 84.74 123.95"><defs><style>.cls-1,.cls-2{fill:none;stroke:#fff;stroke-miterlimit:10;}.cls-1{stroke-width:5px;}.cls-2{stroke-linecap:round;stroke-width:2px;opacity:0.7;}.cls-3{fill:#fff;}</style></defs><title>Asset 1</title><g id="Layer_2" data-name="Layer 2"><g id="Layer_1-2" data-name="Layer 1"><path class="cls-1" d="M52.85,48.85H22A19.48,19.48,0,1,0,37.41,80.17,19.47,19.47,0,1,0,52.85,48.85Z"/><line class="cls-2" x1="18.38" y1="57.61" x2="12.08" y2="63.91"/><line class="cls-2" x1="25.38" y1="57.61" x2="13.23" y2="69.76"/><path class="cls-3" d="M37.41,94.41a14.77,14.77,0,1,0,14.77,14.77A14.77,14.77,0,0,0,37.41,94.41Zm0,25.78a11,11,0,1,1,11-11A11,11,0,0,1,37.41,120.19Z"/><circle class="cls-3" cx="37.41" cy="109.18" r="6.31"/><path class="cls-1" d="M37.41,109.18H56.94c17.12,0,25.3-16.15,25.3-30V38.6"/><circle class="cls-3" cx="81.43" cy="27.02" r="3.26" transform="translate(-4.21 21.86) rotate(-14.9)"/><circle class="cls-3" cx="65.36" cy="3.26" r="3.26" transform="translate(1.36 16.92) rotate(-14.9)"/><circle class="cls-3" cx="75" cy="14.73" r="4.68" transform="translate(-1.26 19.79) rotate(-14.9)"/></g></g></svg>